<svg id="visual" viewBox="0 0 900 600" width="900" height="600" xmlns="http://www.w3.org/2000/svg" xmlns:xlink="http://www.w3.org/1999/xlink" version="1.1"><path d="M254 0L249.7 16.7C245.3 33.3 236.7 66.7 229.8 100C223 133.3 218 166.7 223.7 200C229.3 233.3 245.7 266.7 243.7 300C241.7 333.3 221.3 366.7 225.5 400C229.7 433.3 258.3 466.7 266.3 500C274.3 533.3 261.7 566.7 255.3 583.3L249 600L0 600L0 583.3C0 566.7 0 533.3 0 500C0 466.7 0 433.3 0 400C0 366.7 0 333.3 0 300C0 266.7 0 233.3 0 200C0 166.7 0 133.3 0 100C0 66.7 0 33.3 0 16.7L0 0Z" fill="#8e21d5"></path><path d="M164 0L170.8 16.7C177.7 33.3 191.3 66.7 199.2 100C207 133.3 209 166.7 212.8 200C216.7 233.3 222.3 266.7 216 300C209.7 333.3 191.3 366.7 183.2 400C175 433.3 177 466.7 181.7 500C186.3 533.3 193.7 566.7 197.3 583.3L201 600L0 600L0 583.3C0 566.7 0 533.3 0 500C0 466.7 0 433.3 0 400C0 366.7 0 333.3 0 300C0 266.7 0 233.3 0 200C0 166.7 0 133.3 0 100C0 66.7 0 33.3 0 16.7L0 0Z" fill="#781fb5"></path><path d="M137 0L136.3 16.7C135.7 33.3 134.3 66.7 138.2 100C142 133.3 151 166.7 156.2 200C161.3 233.3 162.7 266.7 155 300C147.3 333.3 130.7 366.7 126.7 400C122.7 433.3 131.3 466.7 130.8 500C130.3 533.3 120.7 566.7 115.8 583.3L111 600L0 600L0 583.3C0 566.7 0 533.3 0 500C0 466.7 0 433.3 0 400C0 366.7 0 333.3 0 300C0 266.7 0 233.3 0 200C0 166.7 0 133.3 0 100C0 66.7 0 33.3 0 16.7L0 0Z" fill="#631b97"></path><path d="M98 0L95.3 16.7C92.7 33.3 87.3 66.7 81.7 100C76 133.3 70 166.7 70.5 200C71 233.3 78 266.7 79 300C80 333.3 75 366.7 74.2 400C73.3 433.3 76.7 466.7 77.5 500C78.3 533.3 76.7 566.7 75.8 583.3L75 600L0 600L0 583.3C0 566.7 0 533.3 0 500C0 466.7 0 433.3 0 400C0 366.7 0 333.3 0 300C0 266.7 0 233.3 0 200C0 166.7 0 133.3 0 100C0 66.7 0 33.3 0 16.7L0 0Z" fill="#4f1779"></path></svg>