<svg id="visual" viewBox="0 0 900 600" width="900" height="600" xmlns="http://www.w3.org/2000/svg" xmlns:xlink="http://www.w3.org/1999/xlink" version="1.1"><path d="M31 0L34.5 14.3C38 28.7 45 57.3 44.5 85.8C44 114.3 36 142.7 34.5 171.2C33 199.7 38 228.3 44.5 257C51 285.7 59 314.3 62.5 343C66 371.7 65 400.3 63 428.8C61 457.3 58 485.7 56.3 514.2C54.7 542.7 54.3 571.3 54.2 585.7L54 600L0 600L0 585.7C0 571.3 0 542.7 0 514.2C0 485.7 0 457.3 0 428.8C0 400.3 0 371.7 0 343C0 314.3 0 285.7 0 257C0 228.3 0 199.7 0 171.2C0 142.7 0 114.3 0 85.8C0 57.3 0 28.7 0 14.3L0 0Z" fill="#5dc90d" stroke-linecap="round" stroke-linejoin="miter"></path></svg>