<svg id="visual" viewBox="0 0 900 600" width="900" height="600" xmlns="http://www.w3.org/2000/svg" xmlns:xlink="http://www.w3.org/1999/xlink" version="1.1"><path d="M90 0L100.8 14.3C111.7 28.7 133.3 57.3 132 85.8C130.7 114.3 106.3 142.7 101.5 171.2C96.7 199.7 111.3 228.3 130.8 257C150.3 285.7 174.7 314.3 185.5 343C196.3 371.7 193.7 400.3 187.7 428.8C181.7 457.3 172.3 485.7 167 514.2C161.7 542.7 160.3 571.3 159.7 585.7L159 600L0 600L0 585.7C0 571.3 0 542.7 0 514.2C0 485.7 0 457.3 0 428.8C0 400.3 0 371.7 0 343C0 314.3 0 285.7 0 257C0 228.3 0 199.7 0 171.2C0 142.7 0 114.3 0 85.8C0 57.3 0 28.7 0 14.3L0 0Z" fill="#3ae81b" stroke-linecap="round" stroke-linejoin="miter"></path></svg>