<svg id="visual" viewBox="0 0 900 600" width="900" height="600" xmlns="http://www.w3.org/2000/svg" xmlns:xlink="http://www.w3.org/1999/xlink" version="1.1"><path d="M120 0L134.5 14.3C149 28.7 178 57.3 176.2 85.8C174.3 114.3 141.7 142.7 135.2 171.2C128.7 199.7 148.3 228.3 174.3 257C200.3 285.7 232.7 314.3 247.2 343C261.7 371.7 258.3 400.3 250.3 428.8C242.3 457.3 229.7 485.7 222.5 514.2C215.3 542.7 213.7 571.3 212.8 585.7L212 600L0 600L0 585.7C0 571.3 0 542.7 0 514.2C0 485.7 0 457.3 0 428.8C0 400.3 0 371.7 0 343C0 314.3 0 285.7 0 257C0 228.3 0 199.7 0 171.2C0 142.7 0 114.3 0 85.8C0 57.3 0 28.7 0 14.3L0 0Z" fill="#27ff00" stroke-linecap="round" stroke-linejoin="miter"></path></svg>